<?xml version="1.0" encoding="UTF-8"?>
<svg xmlns="http://www.w3.org/2000/svg" id="Layer_1" data-name="Layer 1" viewBox="0 0 24 24">
  <path d="m12.001,12c-1.797,0-3.498,1.644-3.5,3.362-.023.546.179,1.01.568,1.304.497.375,1.245.437,2.047.172.57-.18,1.197-.181,1.769,0,.302.094.614.148.926.161.007,0,.015,0,.021,0,1.043,0,1.666-.604,1.666-1.617,0-1.739-1.7-3.383-3.499-3.383Zm1.843,4c-.224-.011-.446-.05-.66-.116-.381-.12-.781-.18-1.182-.18s-.807.061-1.192.183c-.478.157-.915.151-1.137-.019-.046-.035-.186-.14-.172-.484.001-1.181,1.263-2.383,2.5-2.383s2.499,1.203,2.499,2.383c0,.447-.178.615-.655.617Zm3.028-4.469c-.239,2.124-2.025,1.854-1.862-.222.081-.879.546-1.365,1.06-1.304s.882.647.801,1.526Zm-7.999-.222c.162,2.074-1.623,2.346-1.862.222-.08-.878.288-1.464.802-1.526.514-.061.98.425,1.06,1.304Zm.638-1.778c-.081-.878.284-1.464.8-1.526.516-.061.98.425,1.062,1.304.164,2.074-1.622,2.347-1.862.222Zm3.116-.222c.081-.879.546-1.365,1.06-1.304.514.061.882.647.802,1.526-.239,2.124-2.025,1.854-1.862-.222ZM17.5,1c-2.135,0-4.105,1.071-5.271,2.865-.146.222-.313.222-.458,0-1.166-1.794-3.136-2.865-5.271-2.865C2.977,1,0,3.868,0,7.263c0,5.292,6.521,12.119,9.969,14.99.595.496,1.329.744,2.064.743.722,0,1.445-.239,2.038-.719,3.839-3.103,9.93-9.922,9.93-15.014,0-3.395-2.977-6.263-6.5-6.263Zm-4.059,20.5c-.827.669-2.017.663-2.833-.016C7.936,19.259,1,12.366,1,7.263c0-2.853,2.519-5.263,5.5-5.263,1.795,0,3.452.901,4.433,2.41.475.729,1.659.729,2.134,0,.98-1.509,2.638-2.41,4.433-2.41,2.981,0,5.5,2.41,5.5,5.263,0,4.744-5.863,11.25-9.559,14.237Z"/>
</svg>
